# xmcd CD database file
#
# Track frame offsets:
#	150
#	12197
#	25755
#	37395
#	46162
#	58145
#	82372
#	103177
#	118795
#	132222
#	145445
#	174505
#	183962
#	203867
#	220440
#	240820
#	261575
#	281480
#	315385
#
# Disc length: 4515 seconds
#
# Revision: 13
# Processed by: cddbd v1.5.2PL0 Copyright (c) Steve Scherf et al.
# Submitted via: CDex 1.70beta2
#
DISCID=1f11a113
DTITLE=Jefferson Airplane / Jefferson Starship / Starship / Hits (Disc 1)
DYEAR=1998
DGENRE=Rock
TTITLE0=Jefferson Airplane / It's No Secret
TTITLE1=Jefferson Airplane / Somebody To Love
TTITLE2=Jefferson Airplane / White Rabbit
TTITLE3=Jefferson Airplane / Embryonic Journey
TTITLE4=Jefferson Airplane / Plastic Fantastic Lover
TTITLE5=Jefferson Airplane / Comin' Back To Me
TTITLE6=Jefferson Airplane / The Ballad Of You And Me And Pooneil
TTITLE7=Jefferson Airplane / Greasy Heart
TTITLE8=Jefferson Airplane / Lather
TTITLE9=Jefferson Airplane / Crown Of Creation
TTITLE10=Jefferson Airplane / Wooden Ships
TTITLE11=Jefferson Airplane / Volunteers
TTITLE12=Jefferson Airplane / Good Shepherd
TTITLE13=Jefferson Airplane / Have You Seen The Saucers
TTITLE14=Jefferson Airplane / Pretty As You Feel
TTITLE15=Jefferson Airplane / Third Week In The Chelsea
TTITLE16=Jefferson Airplane / Long John Silver
TTITLE17=Jefferson Starship / Caroline
TTITLE18=Jefferson Starship / Ride The Tiger
EXTD=RCA\nYear: 1998\nCatalog Number: 07863 67705-2\n\nDisc 1 of 2 YEAR: 1998
EXTT0=Jefferson Airplane
EXTT1=Jefferson Airplane
EXTT2=Jefferson Airplane
EXTT3=Jefferson Airplane
EXTT4=Jefferson Airplane
EXTT5=Jefferson Airplane
EXTT6=Jefferson Airplane
EXTT7=Jefferson Airplane
EXTT8=Jefferson Airplane
EXTT9=Jefferson Airplane
EXTT10=Jefferson Airplane
EXTT11=Jefferson Airplane
EXTT12=Jefferson Airplane
EXTT13=Jefferson Airplane
EXTT14=Jefferson Airplane
EXTT15=Jefferson Airplane
EXTT16=Jefferson Airplane
EXTT17=Jefferson Starship
EXTT18=Jefferson Starship
PLAYORDER=
